HIERARCHY
ROOT Hips
{
	OFFSET	0.00	0.00	0.00
	CHANNELS 6 Xposition Yposition Zposition Zrotation Xrotation Yrotation
	JOINT LeftUpLeg
	{
		OFFSET	 0.126116	-0.065224	 0.014019
		CHANNELS 3 Zrotation Xrotation Yrotation
		JOINT LeftLeg
		{
			OFFSET	 0.000000	 0.569914	 0.000000
			CHANNELS 3 Zrotation Xrotation Yrotation
			JOINT LeftFoot
			{
				OFFSET	 0.000000	 0.544423	 0.000000
				CHANNELS 3 Zrotation Xrotation Yrotation
				JOINT LeftToeBase
				{
					OFFSET	 0.000000	 0.207117	 0.000000
					CHANNELS 3 Zrotation Xrotation Yrotation
					End Site
					{
						OFFSET	 0.000000	 0.207117	 0.000000
					}
				}
			}
		}
	}
	JOINT RightUpLeg
	{
		OFFSET	-0.124023	-0.065224	 0.008373
		CHANNELS 3 Zrotation Xrotation Yrotation
		JOINT RightLeg
		{
			OFFSET	 0.000000	 0.570047	 0.000000
			CHANNELS 3 Zrotation Xrotation Yrotation
			JOINT RightFoot
			{
				OFFSET	 0.000000	 0.544354	 0.000000
				CHANNELS 3 Zrotation Xrotation Yrotation
				JOINT RightToeBase
				{
					OFFSET	 0.000000	 0.207540	 0.000000
					CHANNELS 3 Zrotation Xrotation Yrotation
					End Site
					{
						OFFSET	 0.000000	 0.207540	 0.000000
					}
				}
			}
		}
	}
	JOINT Spine
	{
		OFFSET	 0.000184	 0.117403	 0.007763
		CHANNELS 3 Zrotation Xrotation Yrotation
		JOINT Spine1
		{
			OFFSET	 0.000000	 0.137269	 0.000000
			CHANNELS 3 Zrotation Xrotation Yrotation
			JOINT Spine2
			{
				OFFSET	 0.000000	 0.156879	 0.000000
				CHANNELS 3 Zrotation Xrotation Yrotation
				JOINT LeftShoulder
				{
					OFFSET	 0.080501	 0.160143	 0.002496
					CHANNELS 3 Zrotation Xrotation Yrotation
					JOINT LeftArm
					{
						OFFSET	 0.000000	 0.164363	 0.000000
						CHANNELS 3 Zrotation Xrotation Yrotation
						JOINT LeftForeArm
						{
							OFFSET	 0.000000	 0.364576	 0.000000
							CHANNELS 3 Zrotation Xrotation Yrotation
							JOINT LeftHand
							{
								OFFSET	 0.000000	 0.360812	 0.000000
								CHANNELS 3 Zrotation Xrotation Yrotation
								JOINT LeftHandIndex1
								{
									OFFSET	 0.000000	 0.086006	 0.000000
									CHANNELS 3 Zrotation Xrotation Yrotation
									JOINT LeftHandIndex2
									{
										OFFSET	 0.000000	 0.047237	 0.000000
										CHANNELS 3 Zrotation Xrotation Yrotation
										JOINT LeftHandIndex3
										{
											OFFSET	-0.004284	 0.038165	 0.000551
											CHANNELS 3 Zrotation Xrotation Yrotation
											End Site
											{
												OFFSET	-0.004284	 0.038165	 0.000551
											}
										}
									}
								}
							}
						}
					}
				}
				JOINT Neck
				{
					OFFSET	 0.000000	 0.176489	 0.000000
					CHANNELS 3 Zrotation Xrotation Yrotation
					JOINT Head
					{
						OFFSET	 0.000000	 0.077941	 0.001747
						CHANNELS 3 Zrotation Xrotation Yrotation
						End Site
						{
							OFFSET	 0.000000	 0.077941	 0.001747
						}
					}
				}
				JOINT RightShoulder
				{
					OFFSET	-0.080363	 0.159706	-0.000306
					CHANNELS 3 Zrotation Xrotation Yrotation
					JOINT RightArm
					{
						OFFSET	 0.000000	 0.164196	 0.000000
						CHANNELS 3 Zrotation Xrotation Yrotation
						JOINT RightForeArm
						{
							OFFSET	 0.000000	 0.365611	 0.000000
							CHANNELS 3 Zrotation Xrotation Yrotation
							JOINT RightHand
							{
								OFFSET	 0.000000	 0.360648	 0.000000
								CHANNELS 3 Zrotation Xrotation Yrotation
								JOINT RightHandIndex1
								{
									OFFSET	 0.000000	 0.069977	 0.000000
									CHANNELS 3 Zrotation Xrotation Yrotation
									JOINT RightHandIndex2
									{
										OFFSET	 0.000000	 0.052305	 0.000000
										CHANNELS 3 Zrotation Xrotation Yrotation
										JOINT RightHandIndex3
										{
											OFFSET	 0.009002	 0.042196	 0.000782
											CHANNELS 3 Zrotation Xrotation Yrotation
											End Site
											{
												OFFSET	 0.009002	 0.042196	 0.000782
											}
										}
									}
								}
							}
						}
					}
				}
			}
		}
	}
}
MOTION
Frames:    11
Frame Time: 0.03333334
-0.017207	 1.255081	 0.114734	 4.526314	 0.127446	 174.112900	-167.297200	 14.982980	-0.436962	 2.123087	-21.890610	 1.048030	 43.394820	 44.958590	-59.830970	 4.912827	 28.009680	-6.307238	-175.979100	 5.827029	 5.942088	-1.861635	-20.653350	 1.688800	-56.520150	 59.061710	 65.010560	-0.388223	 31.185990	 1.644672	 1.229190	 3.998733	-7.167556	 9.492405	 6.961841	-4.005683	-7.905651	-5.003668	 13.842560	-112.500100	 3.049173	 88.303300	-1.698014	 50.434900	 27.485880	 16.555050	-0.860717	 0.690171	-2.884252	-2.731524	-67.894250	-7.941730	 12.571290	-5.851934	-7.229083	 12.649720	 2.802060	 4.963066	-4.014628	-0.346955	 1.453196	-13.816020	 1.386356	-1.958901	 9.193090	-25.081110	 109.046800	 0.734862	-88.625710	-10.700780	 63.428710	 10.666140	-5.045096	-0.466231	 41.180540	-10.363320	 9.795328	-77.275260	 1.949920	 8.131621	 8.959045	 15.203150	 20.286270	-6.354395	-8.239867	-2.131385	 0.447455
-0.017450	 1.254577	 0.114180	 4.369881	-0.101036	 174.296900	-167.519800	 15.365500	-0.242448	 2.147764	-22.120500	 1.135500	 43.618920	 44.947230	-60.073470	 4.912833	 28.009710	-6.307209	-176.164800	 6.292223	 6.121511	-1.909114	-21.133900	 1.481693	-57.036420	 59.056490	 65.643760	-0.404760	 31.206190	 1.661072	 1.153481	 3.858954	-7.354118	 9.433350	 6.027280	-4.056417	-7.657403	-4.409194	 13.745560	-112.406200	 2.931492	 88.287340	 3.656622	 52.430740	 23.111180	 8.913209	-0.467995	 0.597215	 0.314000	-3.250555	-66.957880	-7.833391	 12.659980	-5.878923	-7.229575	 12.629130	 2.799249	 4.963066	-4.014628	-0.346955	 1.356134	-13.668730	 1.436172	-1.909623	 9.613315	-25.388810	 108.929400	 0.824683	-88.671040	-10.654830	 63.510800	 10.983230	-5.014274	-0.463350	 40.893320	-9.443648	 9.415174	-77.908150	 1.856795	 7.880294	 8.956369	 15.203540	 20.342020	-6.369655	-8.239867	-2.131385	 0.447455
-0.017587	 1.254286	 0.113761	 4.232521	-0.273959	 174.441500	-167.705800	 15.622660	-0.097172	 2.158793	-22.223080	 1.195863	 43.759380	 44.919670	-60.211430	 4.912838	 28.009740	-6.307190	-176.323400	 6.629730	 6.252096	-1.942192	-21.466850	 1.335338	-57.408510	 59.040940	 66.100780	-0.416857	 31.220950	 1.673069	 1.077382	 3.753607	-7.498978	 9.375705	 5.313836	-4.104788	-7.471220	-3.961774	 13.672670	-112.337500	 2.845423	 88.275790	 6.423388	 53.447830	 20.749050	 5.097377	-0.268361	 0.569615	 1.772704	-3.583930	-66.276040	-7.754128	 12.724800	-5.898773	-7.229936	 12.614070	 2.797194	 4.963066	-4.014628	-0.346955	 1.285121	-13.561090	 1.472738	-1.871740	 9.920268	-25.614770	 108.843600	 0.890424	-88.704100	-10.617020	 63.591820	 11.209840	-4.988517	-0.461064	 40.683990	-8.781751	 9.122271	-78.375020	 1.788731	 7.696529	 8.954152	 15.203830	 20.382780	-6.380816	-8.239867	-2.131385	 0.447455
-0.017728	 1.253989	 0.113314	 4.087730	-0.447411	 174.588100	-167.902900	 15.878820	 0.053334	 2.169750	-22.324720	 1.256487	 43.903210	 44.891390	-60.352590	 4.912842	 28.009760	-6.307168	-176.492500	 6.970448	 6.385863	-1.976273	-21.808300	 1.189698	-57.786500	 59.028150	 66.565550	-0.429197	 31.236010	 1.685307	 0.996777	 3.652791	-7.648442	 9.312220	 4.568443	-4.159026	-7.281211	-3.497997	 13.596590	-112.267500	 2.757643	 88.264100	 6.216473	 53.869240	 20.754940	 5.064253	-0.266594	 0.566300	 1.328550	-3.813436	-65.589350	-7.673266	 12.790870	-5.919110	-7.230304	 12.598720	 2.795098	 4.963066	-4.014628	-0.346955	 1.212672	-13.451380	 1.510149	-1.831494	 10.232990	-25.846040	 108.756200	 0.957476	-88.737690	-10.568500	 63.683750	 11.430050	-4.959751	-0.458394	 40.471040	-8.117811	 8.813451	-78.850070	 1.719349	 7.509149	 8.951668	 15.204140	 20.424340	-6.392201	-8.239867	-2.131385	 0.447455
-0.017849	 1.253724	 0.112908	 3.953403	-0.600292	 174.718100	-168.085800	 16.101780	 0.189552	 2.178910	-22.409600	 1.309657	 44.030380	 44.864480	-60.476660	 4.912846	 28.009780	-6.307150	-176.650500	 7.273588	 6.505581	-2.007152	-22.116400	 1.062631	-58.123760	 59.019190	 66.980510	-0.440211	 31.249440	 1.696231	 0.921087	 3.568280	-7.783141	 9.247486	 3.891210	-4.212141	-7.109666	-3.079010	 13.527430	-112.205100	 2.679339	 88.253780	 6.018088	 54.253600	 20.775920	 5.031478	-0.264874	 0.563299	 0.936537	-4.030331	-64.982810	-7.601083	 12.849780	-5.937341	-7.230634	 12.585020	 2.793228	 4.963066	-4.014628	-0.346955	 1.148002	-13.353540	 1.543630	-1.794215	 10.511710	-26.053130	 108.678200	 1.017357	-88.767550	-10.514590	 63.776180	 11.615600	-4.932055	-0.455813	 40.281020	-7.538107	 8.531372	-79.271560	 1.657465	 7.341973	 8.949257	 15.204420	 20.461410	-6.402360	-8.239867	-2.131385	 0.447455
-0.017938	 1.253515	 0.112588	 3.842268	-0.721795	 174.821300	-168.236200	 16.275760	 0.298809	 2.185507	-22.470640	 1.351064	 44.129120	 44.841100	-60.571980	 4.912849	 28.009810	-6.307136	-176.781400	 7.515759	 6.600503	-2.032081	-22.363940	 0.963736	-58.391990	 59.013220	 67.310770	-0.448935	 31.260060	 1.704883	 0.857329	 3.502435	-7.890487	 9.187181	 3.348623	-4.257589	-6.970786	-2.744533	 13.471860	-112.155700	 2.617324	 88.245670	 5.848600	 54.564280	 20.804870	 5.003523	-0.263386	 0.561006	 0.630040	-4.213239	-64.504800	-7.543907	 12.896420	-5.951832	-7.230894	 12.574180	 2.791748	 4.963066	-4.014628	-0.346955	 1.096774	-13.276100	 1.570211	-1.763775	 10.732240	-26.217560	 108.616500	 1.064815	-88.791170	-10.460910	 63.858860	 11.751680	-4.906920	-0.453508	 40.131260	-7.091493	 8.305847	-79.602870	 1.608477	 7.209603	 8.947220	 15.204650	 20.490770	-6.410405	-8.239867	-2.131385	 0.447455
-0.018013	 1.253316	 0.112292	 3.729988	-0.839991	 174.919000	-168.386300	 16.440840	 0.404562	 2.191008	-22.521620	 1.390032	 44.221420	 44.814810	-60.660490	 4.912852	 28.009820	-6.307122	-176.913500	 7.753373	 6.691335	-2.056675	-22.607480	 0.870326	-58.650970	 59.009860	 67.629500	-0.457293	 31.270240	 1.713171	 0.790897	 3.438921	-7.993404	 9.117576	 2.826128	-4.304065	-6.833239	-2.423178	 13.418060	-112.108400	 2.557928	 88.237970	 5.673154	 54.868330	 20.847310	 4.973628	-0.261756	 0.558705	 0.341944	-4.402653	-64.051130	-7.489126	 12.941060	-5.965758	-7.231145	 12.563790	 2.790330	 4.963066	-4.014628	-0.346955	 1.047691	-13.201950	 1.595728	-1.733860	 10.943280	-26.375440	 108.557400	 1.110255	-88.813710	-10.397220	 63.949520	 11.869960	-4.879287	-0.450948	 39.987640	-6.677999	 8.090261	-79.917050	 1.561567	 7.082828	 8.945162	 15.204870	 20.518890	-6.418113	-8.239867	-2.131385	 0.447455
-0.018073	 1.253168	 0.112061	 3.631772	-0.944654	 174.999900	-168.515500	 16.578680	 0.493584	 2.194114	-22.550330	 1.421716	 44.294400	 44.785870	-60.728310	 4.912855	 28.009840	-6.307110	-177.028800	 7.958663	 6.766984	-2.077209	-22.810060	 0.793450	-58.863200	 59.006930	 67.891140	-0.464272	 31.278740	 1.720093	 0.731674	 3.380798	-8.078965	 9.047579	 2.387592	-4.344623	-6.713593	-2.153551	 13.372750	-112.068800	 2.508339	 88.231570	 5.513182	 55.132200	 20.896330	 4.943220	-0.260175	 0.556727	 0.108558	-4.578356	-63.673550	-7.443374	 12.978330	-5.977419	-7.231354	 12.555120	 2.789147	 4.963066	-4.014628	-0.346955	 1.006699	-13.140070	 1.617075	-1.708312	 11.119350	-26.507610	 108.508100	 1.148234	-88.832500	-10.325620	 64.037120	 11.951610	-4.852052	-0.448459	 39.868240	-6.349196	 7.913585	-80.176270	 1.522409	 6.976987	 8.943364	 15.205060	 20.542360	-6.424548	-8.239867	-2.131385	 0.447455
-0.018118	 1.253084	 0.111912	 3.556017	-1.029559	 175.057500	-168.612900	 16.680840	 0.559233	 2.194638	-22.555130	 1.444108	 44.343640	 44.755480	-60.771800	 4.912857	 28.009840	-6.307101	-177.117600	 8.117540	 6.821980	-2.091977	-22.955490	 0.737924	-59.012100	 59.004620	 68.075160	-0.469383	 31.284960	 1.725162	 0.684885	 3.330525	-8.140640	 8.985891	 2.065265	-4.374764	-6.621621	-1.955503	 13.339390	-112.040000	 2.472017	 88.226890	 5.380685	 55.335420	 20.946730	 4.917886	-0.258833	 0.555351	-0.056705	-4.724779	-63.397380	-7.409871	 13.005610	-5.985977	-7.231507	 12.548780	 2.788280	 4.963066	-4.014628	-0.346955	 0.976680	-13.094770	 1.632728	-1.689279	 11.248160	-26.604570	 108.472000	 1.176036	-88.846240	-10.254500	 64.112500	 11.994030	-4.827419	-0.446154	 39.780690	-6.124206	 7.789104	-80.363320	 1.493745	 6.899502	 8.942003	 15.205200	 20.559540	-6.429260	-8.239867	-2.131385	 0.447455
-0.018140	 1.253025	 0.111816	 3.488512	-1.106331	 175.102800	-168.696000	 16.767140	 0.611994	 2.193738	-22.546900	 1.461256	 44.378880	 44.724060	-60.801350	 4.912858	 28.009850	-6.307094	-177.195000	 8.259581	 6.865059	-2.104639	-23.079770	 0.693822	-59.133540	 59.004390	 68.225430	-0.473441	 31.289900	 1.729186	 0.640549	 3.280324	-8.189179	 8.920959	 1.809238	-4.399539	-6.541494	-1.797750	 13.312930	-112.017000	 2.443205	 88.223210	 5.258570	 55.505770	 21.003870	 4.892888	-0.257542	 0.554186	-0.180922	-4.861462	-63.179220	-7.383267	 13.027260	-5.992783	-7.231629	 12.543740	 2.787592	 4.963066	-4.014628	-0.346955	 0.952845	-13.058810	 1.645170	-1.673968	 11.350390	-26.681620	 108.443300	 1.198121	-88.857140	-10.177190	 64.187810	 12.008140	-4.802737	-0.443938	 39.711610	-5.963058	 7.696746	-80.509230	 1.470991	 6.837989	 8.940894	 15.205320	 20.573190	-6.433002	-8.239867	-2.131385	 0.447455
-0.018141	 1.252990	 0.111778	 3.429524	-1.175665	 175.135500	-168.764100	 16.838690	 0.651025	 2.191453	-22.525730	 1.473124	 44.399400	 44.691720	-60.816150	 4.912858	 28.009860	-6.307090	-177.260400	 8.385498	 6.895747	-2.115122	-23.182630	 0.661366	-59.227170	 59.006180	 68.341510	-0.476404	 31.293500	 1.732125	 0.598412	 3.230666	-8.223978	 8.854182	 1.618130	-4.417519	-6.474380	-1.679947	 13.293690	-112.000300	 2.422129	 88.220500	 5.148440	 55.641780	 21.065480	 4.867955	-0.256228	 0.553312	-0.263012	-4.987446	-63.019320	-7.363842	 13.043060	-5.997759	-7.231718	 12.540060	 2.787090	 4.963066	-4.014628	-0.346955	 0.935438	-13.032560	 1.654263	-1.662678	 11.425000	-26.737920	 108.422400	 1.214247	-88.865090	-10.091810	 64.262900	 11.992320	-4.779173	-0.441716	 39.660960	-5.866827	 7.637805	-80.612950	 1.454379	 6.793076	 8.940070	 15.205400	 20.583150	-6.435733	-8.239867	-2.131385	 0.447455
